<svg width="64" height="64" version="1.1" viewBox="0 0 16.9 16.9" xmlns="http://www.w3.org/2000/svg">
 <g stroke-linecap="round" stroke-linejoin="round">
  <rect x="-1.39e-17" width="16.9" height="16.9" ry="3.16" fill="#f5f5f5" stroke-width=".0128"/>
  <path transform="scale(.265)" d="m52.1 7.27-44.8 44.8 3.21 3.21 9.28-9.28h8.26v-8.26l2-2v10.3h10v-14h-6.26l2-2h4.26v-4.26l2-2v6.26h11v-15h-2.26l4.52-4.52-3.21-3.21zm-10.1 24.7v14h11v-14h-11z" stroke-width=".0332"/>
  <path d="m2.12 3.97v2.38h2.12v-2.38zm2.91 0v2.38h3.42l2.39-2.38zm-2.91 3.18v2.12h2.12v-2.12zm2.91 0v2.12h.474l2.26-2.12zm-2.91 2.91v2.12h.438l1.68-1.74v-.372z" fill="#f60" stroke-width=".00878"/>
 </g>
</svg>
